<svg xmlns="http://www.w3.org/2000/svg" viewBox="0 0 48 48">
  
  <defs>
    <linearGradient id="g" x1="0.0000" y1="0.0000" x2="50.7237" y2="42.5623" gradientUnits="userSpaceOnUse">
      <stop offset="0" stop-color="#04F7ED"/>
      <stop offset="0.300" stop-color="#04F7ED"/>
      <stop offset="1" stop-color="#CDFF4C"/>
    </linearGradient>
    <clipPath id="s"><path d="M9.4 0H38.6A9.4 9.4 0 0 1 48 9.4V38.6A9.4 9.4 0 0 1 38.6 48H9.4A9.4 9.4 0 0 1 0 38.6V9.4A9.4 9.4 0 0 1 9.4 0Z"/></clipPath>
  </defs>
  <g clip-path="url(#s)">
    <rect width="48" height="48" fill="url(#g)"/>
    <path fill="#000000" d="M8.02 47.68C7.99 47.46 7.93 47.30 7.81 47.17C7.65 46.98 7.63 46.98 7.02 46.97C6.31 46.97 6.21 46.92 5.99 46.47C5.78 46.05 5.67 46.00 5.00 46.00C4.32 46.00 4.24 45.96 4.00 45.52C3.91 45.35 3.75 45.17 3.63 45.09C3.36 44.94 3.07 44.64 2.91 44.37C2.84 44.26 2.65 44.09 2.50 44.00C2.35 43.91 2.16 43.74 2.09 43.63C1.93 43.36 1.64 43.07 1.37 42.91C1.02 42.70 0.99 42.58 1.03 41.54C1.08 40.27 1.00 40.10 0.31 40.02L0.00 39.98L0.00 39.49L0.00 39.00L0.17 39.00C0.49 39.00 0.81 38.87 0.92 38.71C1.00 38.58 1.03 38.40 1.03 37.95C1.03 37.37 1.03 37.36 1.23 37.20C1.34 37.11 1.52 36.98 1.63 36.91C1.74 36.84 1.91 36.65 2.00 36.50C2.09 36.35 2.26 36.16 2.38 36.08C2.82 35.80 2.88 35.74 3.03 35.44C3.15 35.20 3.26 35.09 3.50 34.96C3.89 34.75 3.97 34.60 4.03 34.03C4.08 33.52 4.19 33.28 4.42 33.16C4.65 33.05 4.81 32.87 5.00 32.51C5.12 32.28 5.23 32.18 5.53 32.03C5.79 31.90 5.92 31.78 5.97 31.67C6.06 31.40 5.94 31.18 5.64 31.02C5.16 30.78 5.08 30.70 4.97 30.37C4.90 30.17 4.74 29.91 4.52 29.67C3.97 29.06 3.99 29.20 4.01 24.98C4.02 22.27 4.04 21.29 4.10 21.15C4.27 20.72 4.65 20.66 5.72 20.87C6.46 21.03 7.46 21.04 7.92 20.91C8.09 20.85 8.41 20.69 8.61 20.53C9.28 20.04 9.65 20.04 10.13 20.51C10.54 20.92 11.42 21.13 11.74 20.90C11.82 20.84 11.94 20.68 12.00 20.53C12.11 20.27 12.18 20.20 12.62 19.92C12.74 19.84 12.91 19.65 13.00 19.50C13.09 19.35 13.26 19.16 13.38 19.08C13.82 18.80 13.88 18.74 14.03 18.45C14.11 18.29 14.24 18.12 14.32 18.08C14.40 18.04 14.71 18.00 15.01 17.98C15.62 17.96 15.70 17.91 15.97 17.46C16.08 17.28 16.23 17.14 16.45 17.02C16.64 16.92 16.84 16.75 16.92 16.62C17.21 16.16 17.30 16.09 17.89 15.85C18.59 15.57 18.68 15.59 18.85 16.05C19.12 16.78 19.08 16.73 19.62 17.08C19.74 17.16 19.91 17.35 20.00 17.50C20.09 17.65 20.26 17.84 20.37 17.91C20.64 18.07 20.93 18.36 21.09 18.63C21.16 18.74 21.35 18.91 21.50 19.00C21.65 19.09 21.84 19.26 21.91 19.37C22.07 19.64 22.36 19.94 22.63 20.09C22.78 20.18 22.91 20.35 23.06 20.66C23.35 21.24 23.46 21.29 24.10 21.15C24.49 21.06 24.64 21.00 24.80 20.84C25.00 20.64 25.00 20.63 25.00 20.03C25.00 19.70 25.03 19.37 25.07 19.30C25.11 19.23 25.32 19.09 25.54 18.99C25.82 18.86 25.99 18.74 26.13 18.55C26.39 18.19 26.50 18.13 27.02 18.07C27.63 18.00 27.79 17.91 28.02 17.47C28.15 17.22 28.31 17.03 28.50 16.91C28.65 16.80 28.85 16.59 28.93 16.44C29.17 16.02 29.37 15.93 30.00 15.95C30.64 15.98 30.81 16.07 30.99 16.50C31.12 16.80 32.01 17.77 32.29 17.92C32.36 17.96 32.68 18.02 33.00 18.05C33.64 18.12 33.63 18.11 34.00 18.67C34.10 18.80 34.29 18.97 34.46 19.06C34.63 19.15 34.80 19.27 34.84 19.34C34.89 19.41 34.94 19.72 34.96 20.02C35.00 20.60 35.08 20.81 35.33 20.95C35.51 21.05 36.48 21.04 36.69 20.94C36.77 20.90 36.98 20.71 37.16 20.52C37.42 20.24 37.51 20.18 37.75 20.15C38.20 20.09 38.52 20.21 38.90 20.59C39.11 20.80 39.30 20.93 39.43 20.96C39.85 21.04 41.59 21.00 41.91 20.91C42.48 20.74 42.73 20.79 43.11 21.14C43.36 21.38 43.37 21.56 43.16 22.01C43.02 22.30 43.00 22.43 43.00 23.00C43.00 23.76 43.09 24.01 43.49 24.45C43.95 24.96 43.97 25.01 43.99 26.38C44.01 27.77 44.02 27.75 43.47 28.05C43.30 28.14 43.12 28.29 43.08 28.38C43.04 28.46 43.00 28.76 43.00 29.06C43.00 29.67 42.94 29.78 42.53 29.99C42.23 30.14 42.14 30.24 41.91 30.66C41.82 30.83 41.63 31.05 41.50 31.14C41.15 31.38 41.15 31.62 41.50 31.86C41.65 31.96 41.82 32.17 41.94 32.39C42.13 32.74 42.18 32.80 42.62 33.08C42.74 33.16 42.91 33.35 43.00 33.50C43.09 33.65 43.26 33.84 43.38 33.92C43.82 34.20 43.88 34.27 44.06 34.61C44.16 34.82 44.31 35.01 44.42 35.07C44.77 35.28 44.88 35.46 44.97 36.00C45.08 36.61 45.17 36.77 45.49 36.93C45.77 37.07 45.88 37.20 46.06 37.55C46.16 37.75 46.27 37.85 46.51 37.97C46.70 38.07 46.86 38.21 46.93 38.33C47.16 38.75 47.33 38.89 47.68 38.92L48.00 38.95L48.00 39.48L48.00 40.00L47.83 40.00C47.51 40.00 47.19 40.13 47.08 40.29C47.00 40.42 46.97 40.60 46.97 41.03C46.97 41.69 46.92 41.79 46.47 42.01C46.05 42.22 46.00 42.33 46.00 43.00C46.00 43.68 45.96 43.76 45.52 44.00C45.35 44.09 45.17 44.25 45.09 44.37C44.93 44.64 44.64 44.93 44.37 45.09C44.25 45.17 44.09 45.35 44.00 45.52C43.76 45.96 43.68 46.00 43.00 46.00C42.33 46.00 42.22 46.05 42.01 46.47C41.79 46.92 41.69 46.97 40.98 46.97C40.37 46.98 40.35 46.98 40.19 47.17C40.07 47.30 40.01 47.46 39.98 47.68L39.93 48.00L35.47 48.00L31.00 48.00L31.00 47.23C31.00 46.36 30.93 46.20 30.53 46.03C30.33 45.94 30.18 45.78 29.92 45.38C29.84 45.26 29.65 45.09 29.50 45.00C29.35 44.91 29.16 44.74 29.08 44.62C28.80 44.19 28.74 44.13 28.44 43.97C28.07 43.76 27.99 43.60 27.95 42.97C27.92 42.40 27.87 42.31 27.48 42.06C27.27 41.93 27.14 41.78 27.01 41.52C26.91 41.32 26.76 41.12 26.69 41.07C26.52 40.97 24.79 40.97 24.41 41.07C24.25 41.11 24.06 41.24 23.86 41.44C23.59 41.73 23.55 41.75 23.26 41.75C22.85 41.75 22.66 41.67 22.33 41.37C22.04 41.10 21.83 41.00 21.57 41.00C21.33 41.00 21.15 41.15 20.95 41.53C20.83 41.74 20.69 41.89 20.50 42.00C20.35 42.09 20.16 42.26 20.08 42.38C19.80 42.81 19.74 42.87 19.45 43.03C19.06 43.24 18.99 43.36 18.96 43.93C18.91 44.64 18.91 44.66 18.53 44.90C18.28 45.06 18.15 45.20 18.03 45.43C17.88 45.74 17.82 45.80 17.38 46.08C17.26 46.16 17.09 46.35 17.00 46.50C16.89 46.69 16.74 46.83 16.53 46.95C16.13 47.17 16.02 47.31 15.97 47.69L15.93 48.00L12.00 48.00L8.07 48.00L8.02 47.68ZM21.20 11.87C21.12 11.80 21.00 11.61 20.92 11.46C20.85 11.29 20.71 11.13 20.61 11.07C20.27 10.88 20.12 10.74 19.97 10.43C19.85 10.21 19.72 10.07 19.47 9.91C19.09 9.67 19.09 9.65 19.04 8.93C19.02 8.67 18.97 8.39 18.93 8.31C18.88 8.24 18.69 8.10 18.49 8.00C18.08 7.79 17.95 7.54 17.89 6.88C17.85 6.38 17.93 6.26 18.44 6.01C18.73 5.87 18.81 5.79 18.95 5.51C19.04 5.33 19.17 5.14 19.23 5.09C19.40 4.96 19.66 4.98 19.86 5.15C20.03 5.30 20.03 5.31 20.01 5.94C20.01 6.29 20.03 6.62 20.06 6.69C20.10 6.76 20.30 6.90 20.50 7.00C20.70 7.10 20.89 7.22 20.92 7.26C20.95 7.31 20.98 7.66 21.00 8.05L21.03 8.77L21.42 9.12C21.63 9.31 21.84 9.55 21.87 9.64C21.97 9.91 22.09 11.25 22.04 11.52C21.96 11.94 21.49 12.14 21.20 11.87ZM28.21 11.66C28.07 11.56 27.85 11.09 27.78 10.74C27.75 10.59 27.78 10.36 27.87 10.05C27.96 9.73 28.00 9.40 28.00 8.99C28.00 8.31 28.07 8.16 28.50 7.93C28.89 7.74 28.95 7.59 29.00 6.75C29.08 5.54 29.29 5.25 30.13 5.20C30.51 5.18 30.55 5.19 30.69 5.35C31.04 5.74 31.19 5.86 31.44 5.93C31.91 6.07 32.12 6.42 31.93 6.76C31.89 6.83 31.71 6.95 31.53 7.03C31.07 7.24 31.00 7.36 31.00 7.95C31.00 8.56 30.92 8.74 30.50 8.96C30.27 9.09 30.15 9.21 30.05 9.40C29.88 9.74 29.77 9.86 29.48 10.01C29.16 10.17 29.03 10.42 28.94 10.99C28.84 11.66 28.57 11.91 28.21 11.66ZM24.14 10.85L23.97 10.70L23.97 8.68C23.97 7.28 23.94 6.59 23.89 6.44C23.85 6.32 23.70 6.08 23.56 5.92C23.43 5.75 23.31 5.56 23.31 5.50C23.31 5.43 23.43 5.24 23.58 5.08C23.73 4.91 23.91 4.67 23.99 4.54C24.19 4.22 24.42 4.12 24.96 4.11C25.53 4.11 25.77 4.22 25.89 4.55C26.00 4.87 26.00 8.35 25.89 8.72C25.85 8.87 25.69 9.17 25.54 9.40C25.38 9.63 25.23 9.97 25.18 10.15C25.09 10.56 24.97 10.78 24.80 10.90C24.60 11.04 24.35 11.02 24.14 10.85Z"/>
    <path fill="#FFFFFF" d="M8.12 47.81C8.12 47.53 7.97 47.21 7.78 47.09C7.66 47.01 7.47 46.98 7.00 46.97C6.31 46.97 6.21 46.92 5.99 46.47C5.78 46.05 5.67 46.00 5.00 46.00C4.32 46.00 4.22 45.95 4.01 45.52C3.88 45.26 3.81 45.20 3.38 44.92C3.26 44.84 3.07 44.63 2.97 44.44C2.86 44.24 2.67 44.02 2.51 43.91C2.36 43.81 2.16 43.61 2.07 43.47C1.98 43.33 1.77 43.15 1.60 43.06C1.03 42.74 1.03 42.76 1.01 41.58C1.00 40.41 1.02 40.30 1.37 40.09C1.64 39.93 1.93 39.64 2.09 39.37C2.16 39.26 2.35 39.09 2.50 39.00C2.65 38.91 2.84 38.74 2.91 38.63C3.07 38.36 3.36 38.07 3.63 37.91C3.75 37.83 3.92 37.64 4.03 37.44C4.14 37.25 4.32 37.03 4.44 36.95C4.82 36.70 4.92 36.54 5.00 36.03C5.09 35.51 5.23 35.28 5.57 35.08C5.69 35.01 5.83 34.83 5.94 34.61C6.12 34.27 6.18 34.20 6.62 33.92C6.74 33.84 6.91 33.65 7.00 33.50C7.09 33.35 7.26 33.16 7.37 33.09C7.66 32.92 7.95 32.63 8.08 32.39C8.14 32.28 8.27 32.14 8.38 32.08C8.76 31.87 8.94 31.69 8.94 31.50C8.94 31.32 8.83 31.21 8.38 30.92C8.26 30.84 8.09 30.65 8.00 30.50C7.91 30.35 7.74 30.16 7.62 30.08C7.18 29.80 7.12 29.74 6.95 29.41C6.85 29.21 6.67 28.99 6.50 28.86C6.03 28.51 6.03 28.52 6.01 26.36C5.99 24.19 5.97 24.28 6.48 24.01C6.65 23.91 6.83 23.75 6.91 23.63C7.16 23.19 7.39 23.02 7.78 22.94C8.31 22.84 8.60 22.70 8.78 22.46C8.98 22.20 9.24 22.06 9.51 22.06C9.68 22.06 9.78 22.13 10.09 22.47L10.47 22.88L10.99 22.93C11.61 23.00 11.78 23.10 11.99 23.52C12.16 23.88 12.31 23.98 12.75 24.04C13.59 24.13 13.91 23.64 13.98 22.16C14.00 21.74 14.04 21.36 14.07 21.30C14.10 21.24 14.29 21.10 14.47 20.99C14.71 20.86 14.86 20.72 14.94 20.56C15.06 20.32 15.22 20.18 15.62 19.92C15.75 19.84 15.92 19.64 16.00 19.48C16.26 19.00 16.26 19.00 17.50 19.00C18.73 19.00 18.76 19.01 18.99 19.48C19.12 19.74 19.27 19.89 19.62 20.07C19.72 20.13 19.89 20.32 20.00 20.49C20.13 20.70 20.28 20.84 20.50 20.96C20.87 21.16 21.00 21.33 21.00 21.61C21.00 21.88 20.83 22.30 20.68 22.38C20.50 22.48 20.37 22.45 20.06 22.25C19.49 21.89 18.51 21.86 18.17 22.19L18.00 22.37L18.00 23.46C18.00 24.06 18.03 24.63 18.06 24.72C18.10 24.80 18.25 25.00 18.41 25.15C18.56 25.30 18.69 25.46 18.69 25.50C18.69 25.54 18.55 25.71 18.38 25.88C18.00 26.26 17.98 26.36 18.02 27.45C18.05 28.47 18.11 28.63 18.50 28.87C18.97 29.16 19.00 29.26 19.00 30.51C19.00 31.74 18.99 31.76 18.50 32.00C18.05 32.22 18.00 32.32 18.00 33.01C18.00 33.70 17.94 33.81 17.47 34.09C17.32 34.18 17.15 34.32 17.11 34.39C17.06 34.48 17.02 34.95 17.00 35.72C16.96 37.06 16.91 37.22 16.43 37.67C16.02 38.05 15.91 38.36 16.07 38.71C16.17 38.93 16.45 39.04 17.03 39.09C17.56 39.14 17.85 39.23 18.15 39.46C18.26 39.54 18.44 39.65 18.55 39.71C18.94 39.91 19.12 40.43 18.90 40.74C18.85 40.81 18.67 40.95 18.50 41.03C18.12 41.23 18.03 41.35 17.90 41.93C17.81 42.33 17.76 42.42 17.49 42.69C17.32 42.87 17.11 43.17 17.01 43.40C16.85 43.74 16.78 43.82 16.51 43.97C16.26 44.11 16.16 44.21 16.00 44.51C15.85 44.79 15.72 44.94 15.50 45.07C15.18 45.27 15.14 45.34 14.93 45.89C14.85 46.13 14.69 46.38 14.47 46.61C14.11 47.01 14.00 47.25 14.00 47.70L14.00 48.00L11.06 48.00L8.12 48.00L8.12 47.81ZM34.03 47.69C33.98 47.31 33.87 47.17 33.47 46.95C33.26 46.83 33.11 46.69 33.00 46.50C32.91 46.35 32.74 46.16 32.63 46.09C32.16 45.82 32.03 45.63 31.91 45.09C31.81 44.65 31.77 44.57 31.53 44.34C31.36 44.18 31.18 43.92 31.07 43.67C30.89 43.28 30.83 43.21 30.38 42.92C30.25 42.84 30.08 42.64 29.98 42.46C29.85 42.21 29.73 42.09 29.48 41.95C29.09 41.73 29.02 41.59 28.98 40.96C28.95 40.42 28.86 40.26 28.49 40.05C28.30 39.95 28.17 39.81 28.05 39.59C27.87 39.27 27.71 39.10 27.38 38.92C27.26 38.86 27.14 38.72 27.07 38.54C26.86 38.07 26.57 37.89 26.25 38.06C26.18 38.10 26.04 38.30 25.94 38.50C25.84 38.70 25.72 38.89 25.67 38.92C25.63 38.95 25.30 38.98 24.95 39.00L24.30 39.03L24.09 39.28C23.59 39.88 23.59 39.88 23.27 39.87C22.89 39.87 22.52 39.70 22.21 39.40C22.06 39.25 21.83 39.11 21.62 39.04C21.17 38.88 21.03 38.78 20.87 38.53C20.80 38.41 20.63 38.23 20.48 38.13C20.33 38.01 20.15 37.79 20.03 37.58C19.91 37.35 19.76 37.17 19.63 37.09C19.51 37.03 19.32 36.88 19.20 36.77L18.99 36.56L19.01 35.64C19.04 34.58 19.11 34.37 19.50 34.13C19.66 34.03 19.81 33.85 19.95 33.60C20.08 33.36 20.24 33.17 20.37 33.09C20.64 32.93 20.93 32.64 21.09 32.37C21.17 32.25 21.35 32.09 21.52 31.99C21.96 31.76 22.03 31.62 22.03 31.03C22.03 30.42 21.95 30.23 21.60 30.05C21.22 29.86 21.08 29.70 20.94 29.32C20.86 29.12 20.68 28.84 20.50 28.64C20.12 28.23 19.99 27.85 19.98 27.04C19.97 26.38 20.05 26.21 20.43 26.03C20.76 25.87 20.87 25.76 21.04 25.39C21.21 25.00 21.99 24.19 22.32 24.07C22.88 23.86 23.03 23.77 23.20 23.55C23.43 23.27 23.77 23.13 24.21 23.13C24.57 23.13 24.66 23.19 24.93 23.63C25.20 24.08 25.74 24.11 25.95 23.69C26.04 23.51 26.06 23.38 26.02 22.93C25.98 22.31 26.07 22.04 26.42 21.76C26.68 21.56 26.84 21.27 26.93 20.83C27.04 20.30 27.14 20.16 27.51 20.01C28.05 19.78 28.12 19.74 28.29 19.51C28.56 19.17 28.91 19.04 29.76 19.01C30.66 18.98 30.85 19.04 31.27 19.47C31.56 19.77 31.64 19.81 32.05 19.90C32.76 20.06 32.84 20.12 33.03 20.63C33.15 20.93 33.31 21.19 33.50 21.41C33.92 21.87 34.03 22.23 33.97 22.94C33.94 23.38 33.95 23.53 34.03 23.68C34.28 24.18 34.83 24.09 35.15 23.50C35.35 23.13 35.42 23.09 36.08 23.04C36.69 22.99 36.88 22.89 37.09 22.53C37.29 22.20 37.54 22.06 37.95 22.06C38.45 22.06 38.68 22.17 38.87 22.49C39.10 22.86 39.29 22.97 39.86 23.06C40.67 23.18 40.77 23.27 40.92 23.98C41.05 24.64 41.14 24.78 41.50 24.97C41.99 25.22 42.00 25.24 42.00 26.50C42.00 27.74 42.00 27.74 41.52 28.00C41.35 28.09 41.17 28.25 41.09 28.37C40.93 28.64 40.64 28.93 40.37 29.09C40.25 29.17 40.08 29.36 39.97 29.56C39.84 29.80 39.70 29.95 39.50 30.06C39.12 30.28 39.00 30.53 39.00 31.13C39.00 31.69 39.10 31.86 39.49 32.02C39.91 32.19 40.00 32.37 40.00 33.02C40.00 33.68 40.04 33.76 40.48 34.00C40.65 34.09 40.83 34.25 40.91 34.37C41.06 34.64 41.36 34.93 41.63 35.09C41.74 35.16 41.91 35.35 42.00 35.50C42.09 35.65 42.26 35.84 42.38 35.92C42.83 36.21 42.89 36.27 43.01 36.56C43.09 36.72 43.29 36.99 43.50 37.19C43.85 37.52 43.86 37.55 43.94 38.00C44.03 38.59 44.14 38.76 44.51 38.97C44.74 39.09 44.85 39.21 44.97 39.44C45.12 39.74 45.18 39.80 45.62 40.08C45.74 40.16 45.91 40.35 46.00 40.50C46.12 40.70 46.27 40.84 46.50 40.97C47.09 41.30 47.09 41.71 46.51 42.02C46.07 42.26 45.99 42.40 45.94 43.04C45.90 43.62 45.88 43.65 45.35 44.02C45.26 44.08 45.13 44.25 45.05 44.39C44.87 44.75 44.77 44.86 44.43 45.04C44.26 45.12 44.08 45.26 44.02 45.35C43.66 45.87 43.61 45.90 43.05 45.94C42.38 46.00 42.21 46.08 42.03 46.43C41.78 46.92 41.70 46.97 41.00 46.97C40.53 46.98 40.34 47.01 40.22 47.09C40.03 47.21 39.88 47.53 39.88 47.81L39.88 48.00L36.97 48.00L34.07 48.00L34.03 47.69Z"/>
  </g>
</svg>